<svg width="16" height="16" viewBox="0 0 16 16" fill="none" xmlns="http://www.w3.org/2000/svg">
<path d="M0.500024 8.06068C0.495336 7.41323 1.18273 7.04267 1.71331 7.32889L1.7846 7.37203L3.79299 8.72525C4.52252 9.2168 4.07627 10.3326 3.24277 10.2303L3.15519 10.2153L2.35767 10.0403C3.00317 11.8226 4.48042 13.2701 6.44864 13.7975C9.32192 14.5674 12.2685 13.1152 13.4607 10.4939C13.6322 10.1169 14.0769 9.95023 14.4539 10.1217C14.831 10.2932 14.9976 10.7379 14.8262 11.1149C13.3353 14.3927 9.65365 16.2092 6.06041 15.2464C3.05753 14.4418 0.972527 11.9251 0.57067 9.03065C0.526345 8.71138 0.502465 8.38745 0.500024 8.06068ZM1.17712 4.88893C2.66794 1.61118 6.34967 -0.205342 9.94285 0.757455C12.9458 1.56208 15.0308 4.07878 15.4326 6.97318C15.477 7.29245 15.5008 7.61638 15.5032 7.94315C15.5079 8.5906 14.8206 8.96116 14.29 8.67494L14.2187 8.6318L12.2102 7.27858C11.4807 6.78703 11.9269 5.67127 12.7603 5.77352L12.8479 5.78852L13.6455 5.96343C13 4.18117 11.5228 2.73371 9.55465 2.20635C6.6814 1.43645 3.73475 2.88872 2.54252 5.50996C2.37104 5.88701 1.92635 6.05364 1.54931 5.88215C1.17227 5.71066 1.00563 5.26598 1.17712 4.88893Z" fill="white"/>
</svg>
