<svg width="24" height="24" viewBox="0 0 24 24" fill="none" xmlns="http://www.w3.org/2000/svg">
<path fill-rule="evenodd" clip-rule="evenodd" d="M18.7102 17.5651C20.3699 15.9054 20.3699 13.2144 18.7102 11.5547L12.1695 5.01399C11.779 4.62346 11.779 3.9903 12.1695 3.59977C12.56 3.20925 13.1932 3.20925 13.5837 3.59977L20.1244 10.1405C22.5652 12.5813 22.5652 16.5385 20.1244 18.9793C17.6837 21.4201 13.7264 21.4201 11.2856 18.9793L3.33163 11.0254C1.5737 9.2675 1.5737 6.41734 3.33163 4.6594C5.08956 2.90147 7.93973 2.90147 9.69766 4.6594L17.6506 12.6122C18.725 13.6868 18.725 15.4289 17.6506 16.5034C16.5761 17.5779 14.8339 17.5779 13.7594 16.5034L6.51257 9.25663C6.12205 8.8661 6.12205 8.23294 6.51257 7.84241C6.9031 7.45189 7.53626 7.45189 7.92679 7.84241L15.1736 15.0892C15.4671 15.3827 15.9429 15.3827 16.2364 15.0892C16.5298 14.7957 16.5298 14.3199 16.2364 14.0265L8.28345 6.07361C7.30656 5.09673 5.72272 5.09673 4.74584 6.07361C3.76896 7.05049 3.76896 8.63433 4.74584 9.61122L12.6998 17.5651C14.3595 19.2248 17.0505 19.2248 18.7102 17.5651Z" fill="#09244B"/>
</svg>
