<svg width="24" height="24" viewBox="0 0 24 24" fill="none" xmlns="http://www.w3.org/2000/svg">
<path fill-rule="evenodd" clip-rule="evenodd" d="M15.3137 2C15.8441 2 16.3529 2.21071 16.7279 2.58579L21.4142 7.27208C21.7893 7.64715 22 8.15586 22 8.68629V15.3137C22 15.8441 21.7893 16.3529 21.4142 16.7279L16.7279 21.4142C16.3528 21.7893 15.8441 22 15.3137 22H8.68629C8.15586 22 7.64715 21.7893 7.27208 21.4142L2.58579 16.7279C2.21071 16.3528 2 15.8441 2 15.3137V8.68629C2 8.15586 2.21071 7.64715 2.58579 7.27208L7.27208 2.58579C7.64715 2.21071 8.15586 2 8.68629 2H15.3137ZM12 15C11.4477 15 11 15.4477 11 16C11 16.5523 11.4477 17 12 17C12.5523 17 13 16.5523 13 16C13 15.4477 12.5523 15 12 15ZM12 6C11.4872 6 11.0645 6.38604 11.0067 6.88338L11 7V13C11 13.5523 11.4477 14 12 14C12.5128 14 12.9355 13.614 12.9933 13.1166L13 13V7C13 6.44772 12.5523 6 12 6Z" fill="#09244B"/>
</svg>
