<svg width="14" height="7" viewBox="0 0 14 7" fill="none" xmlns="http://www.w3.org/2000/svg">
<path d="M3.03115 3.78447C3.90264 2.31662 5.50398 1.33333 7.33382 1.33333C10.0952 1.33333 12.3338 3.57193 12.3338 6.33333C12.3338 6.70153 12.6323 7 13.0005 7C13.3687 7 13.6672 6.70153 13.6672 6.33333C13.6672 2.83553 10.8316 0 7.33382 0C5.21291 0 3.33639 1.04225 2.18715 2.64186L1.82917 0.611673C1.76524 0.249073 1.41947 0.00695996 1.05687 0.0709C0.694274 0.134833 0.45216 0.480607 0.5161 0.8432L1.21069 4.7824C1.24139 4.95653 1.34001 5.11133 1.48485 5.2128C1.67409 5.34527 1.92566 5.36947 2.13533 5.29633L5.92222 4.6286C6.28482 4.56467 6.52695 4.21893 6.46302 3.85633C6.39909 3.49373 6.05329 3.2516 5.69069 3.31553L3.03115 3.78447Z" fill="#E12432"/>
</svg>
