<svg width="18" height="18" viewBox="0 0 18 18" xmlns="http://www.w3.org/2000/svg">
<path d="M4.53431 8.75752C5.51474 7.1062 7.31625 6 9.37482 6C12.4814 6 14.9998 8.51842 14.9998 11.625C14.9998 12.0392 15.3356 12.375 15.7498 12.375C16.164 12.375 16.4998 12.0392 16.4998 11.625C16.4998 7.68998 13.3098 4.5 9.37482 4.5C6.9888 4.5 4.87771 5.67253 3.58482 7.47209L3.18209 5.18813C3.11016 4.78021 2.72117 4.50783 2.31325 4.57976C1.90533 4.65169 1.63295 5.04068 1.70488 5.4486L2.4863 9.8802C2.52084 10.0761 2.63178 10.2502 2.79472 10.3644C3.00762 10.5134 3.29064 10.5406 3.52652 10.4584L7.78677 9.70717C8.19469 9.63525 8.46709 9.2463 8.39517 8.83838C8.32324 8.43045 7.93422 8.15805 7.52629 8.22997L4.53431 8.75752Z" />
</svg>
