<svg width="24" height="24" viewBox="0 0 24 24" fill="none" xmlns="http://www.w3.org/2000/svg">
<path d="M8.99977 17H6.99977V15H8.99977V17ZM12.9998 15H10.9998V17H12.9998V15ZM8.99977 11H6.99977V13H8.99977V11ZM12.9998 11H10.9998V13H12.9998V11ZM16.9998 11H14.9998V13H16.9998V11ZM20.9998 7V19C20.9998 20.05 20.1798 20.92 19.1498 20.99H18.9998H4.99977C3.94977 20.99 3.07977 20.17 3.00977 19.14V18.99V6.99C3.00977 5.94 3.82977 5.07 4.85977 5H5.00977H7.00977V4C7.00977 3.45 7.45977 3 8.00977 3C8.55977 3 9.00977 3.45 9.00977 4V5H15.0098V4C15.0098 3.45 15.4598 3 16.0098 3C16.5598 3 17.0098 3.45 17.0098 4V5H19.0098C20.0598 5 20.9298 5.82 20.9998 6.85V7ZM19.0098 7H17.0098C17.0098 7.55 16.5598 8 16.0098 8C15.4598 8 15.0098 7.55 15.0098 7H9.00977C9.00977 7.55 8.55977 8 8.00977 8C7.45977 8 7.00977 7.55 7.00977 7H5.00977V19H19.0098V7Z" fill="#09244B"/>
</svg>
