<svg width="16" height="9" viewBox="0 0 16 9" xmlns="http://www.w3.org/2000/svg">
<path d="M3.53431 4.75752C4.51474 3.1062 6.31625 2 8.37482 2C11.4814 2 13.9998 4.51842 13.9998 7.625C13.9998 8.03923 14.3356 8.375 14.7498 8.375C15.164 8.375 15.4998 8.03923 15.4998 7.625C15.4998 3.68998 12.3098 0.5 8.37482 0.5C5.9888 0.5 3.87771 1.67253 2.58482 3.47209L2.18209 1.18813C2.11016 0.780208 1.72117 0.50783 1.31325 0.579762C0.905325 0.651687 0.632948 1.04068 0.70488 1.4486L1.4863 5.8802C1.52084 6.0761 1.63178 6.25025 1.79472 6.3644C2.00762 6.51342 2.29064 6.54065 2.52652 6.45837L6.78677 5.70717C7.19469 5.63525 7.46709 5.2463 7.39517 4.83838C7.32324 4.43045 6.93422 4.15805 6.52629 4.22997L3.53431 4.75752Z"/>
</svg>
