<svg width="16" height="16" viewBox="0 0 16 16"  xmlns="http://www.w3.org/2000/svg">
<path fill-rule="evenodd" clip-rule="evenodd" d="M7.99998 8.94293L11.7712 12.7142C12.0315 12.9745 12.4536 12.9745 12.714 12.7142C12.9743 12.4538 12.9743 12.0317 12.714 11.7713L8.94278 8.00013L12.714 4.2289C12.9743 3.96855 12.9743 3.54644 12.714 3.28609C12.4536 3.02574 12.0315 3.02574 11.7712 3.28609L7.99998 7.05733L4.2287 3.28608C3.96836 3.02573 3.54624 3.02573 3.2859 3.28608C3.02555 3.54643 3.02555 3.96854 3.2859 4.22889L7.05711 8.00013L3.2859 11.7714C3.02555 12.0317 3.02555 12.4538 3.2859 12.7142C3.54624 12.9745 3.96836 12.9745 4.2287 12.7142L7.99998 8.94293Z"/>
</svg>
