<svg width="20" height="21" viewBox="0 0 20 21" xmlns="http://www.w3.org/2000/svg">
<path d="M10 0.5C15.5228 0.5 20 4.97715 20 10.5C20 16.0228 15.5228 20.5 10 20.5C4.47715 20.5 0 16.0228 0 10.5C0 4.97715 4.47715 0.5 10 0.5ZM7.87874 6.96443C7.48821 6.57391 6.85505 6.57391 6.46452 6.96443C6.10404 7.32492 6.07631 7.89215 6.38133 8.28443L6.46452 8.37864L8.5858 10.4999L6.46443 12.6213C6.07391 13.0118 6.07391 13.645 6.46443 14.0355C6.82492 14.396 7.39215 14.4237 7.78443 14.1187L7.87864 14.0355L10 11.9141L12.1214 14.0355C12.5119 14.426 13.1451 14.426 13.5356 14.0355C13.8961 13.675 13.9238 13.1078 13.6188 12.7155L13.5356 12.6213L11.4142 10.4999L13.5355 8.37862C13.926 7.9881 13.926 7.35493 13.5355 6.96441C13.175 6.60392 12.6078 6.57619 12.2155 6.88122L12.1213 6.96441L10 9.0857L7.87874 6.96443Z"/>
</svg>
