<svg width="16" height="16" viewBox="0 0 16 16" fill="none" xmlns="http://www.w3.org/2000/svg">
<path fill-rule="evenodd" clip-rule="evenodd" d="M5.75 0.5C4.92157 0.5 4.25 1.17157 4.25 2V3.5H5.75V2H14V10.25H12.5V11.75H14C14.8285 11.75 15.5 11.0785 15.5 10.25V2C15.5 1.17157 14.8285 0.5 14 0.5H5.75ZM2 4.25C1.17157 4.25 0.5 4.92157 0.5 5.75V14C0.5 14.8285 1.17157 15.5 2 15.5H10.25C11.0785 15.5 11.75 14.8285 11.75 14V5.75C11.75 4.92157 11.0785 4.25 10.25 4.25H2ZM2 5.75H10.25V14H2V5.75Z" fill="white"/>
</svg>
