<svg width="15" height="16" viewBox="0 0 15 16" fill="none" xmlns="http://www.w3.org/2000/svg">
<path d="M9.2094 0.5C9.85507 0.5 10.4283 0.913145 10.6325 1.52565L11.0406 2.75H13.5C13.9142 2.75 14.25 3.08579 14.25 3.5C14.25 3.9142 13.9142 4.24998 13.5 4.25L13.4981 4.30344L12.8476 13.4103C12.7635 14.5878 11.7838 15.5 10.6033 15.5H4.39668C3.21624 15.5 2.2365 14.5878 2.1524 13.4103L1.50191 4.30344C1.50062 4.28551 1.49998 4.26769 1.49997 4.25C1.08577 4.24998 0.75 3.9142 0.75 3.5C0.75 3.08579 1.08579 2.75 1.5 2.75H3.95943L4.36754 1.52565C4.57172 0.913145 5.14493 0.5 5.79057 0.5H9.2094ZM11.9981 4.25H3.00191L3.64858 13.3034C3.67662 13.6959 4.0032 14 4.39668 14H10.6033C10.9968 14 11.3233 13.6959 11.3514 13.3034L11.9981 4.25ZM6 6.5C6.38464 6.5 6.70163 6.78952 6.74495 7.16253L6.75 7.25V11C6.75 11.4142 6.41423 11.75 6 11.75C5.61537 11.75 5.29837 11.4605 5.25505 11.0875L5.25 11V7.25C5.25 6.83577 5.58578 6.5 6 6.5ZM9 6.5C9.41422 6.5 9.75 6.83577 9.75 7.25V11C9.75 11.4142 9.41422 11.75 9 11.75C8.58577 11.75 8.25 11.4142 8.25 11V7.25C8.25 6.83577 8.58577 6.5 9 6.5ZM9.2094 2H5.79057L5.54057 2.75H9.45945L9.2094 2Z" fill="#848484"/>
</svg>
