<svg width="14" height="16" viewBox="0 0 14 16"  xmlns="http://www.w3.org/2000/svg">
<path d="M13 10.25C13.4142 10.25 13.75 10.5858 13.75 11V14C13.75 14.8285 13.0785 15.5 12.25 15.5H1.75C0.921572 15.5 0.25 14.8285 0.25 14V11C0.25 10.5858 0.58579 10.25 1 10.25C1.41421 10.25 1.75 10.5858 1.75 11V14H12.25V11C12.25 10.5858 12.5858 10.25 13 10.25ZM7 0.5C7.41423 0.5 7.75 0.83579 7.75 1.25V8.93195L9.65162 7.03032C9.94457 6.73737 10.4194 6.73737 10.7123 7.03032C11.0052 7.3232 11.0052 7.7981 10.7123 8.09097L7.66292 11.1403C7.29677 11.5065 6.70323 11.5065 6.33708 11.1403L3.28769 8.09097C2.9948 7.7981 2.9948 7.3232 3.28769 7.03032C3.58059 6.73737 4.05545 6.73737 4.34835 7.03032L6.25 8.93195V1.25C6.25 0.83579 6.58577 0.5 7 0.5Z" />
</svg>
