<svg width="16" height="16" viewBox="0 0 16 16"  xmlns="http://www.w3.org/2000/svg">
<path d="M13.3333 10.0007C13.7015 10.0007 14 10.2991 14 10.6673V13.334C14 14.0704 13.4031 14.6673 12.6667 14.6673H3.33333C2.59695 14.6673 2 14.0704 2 13.334V10.6673C2 10.2991 2.29848 10.0007 2.66667 10.0007C3.03485 10.0007 3.33333 10.2991 3.33333 10.6673V13.334H12.6667V10.6673C12.6667 10.2991 12.9651 10.0007 13.3333 10.0007ZM8 1.33398C8.3682 1.33398 8.66667 1.63246 8.66667 2.00065V8.82905L10.357 7.13872C10.6174 6.87832 11.0395 6.87832 11.2998 7.13872C11.5602 7.39905 11.5602 7.82118 11.2998 8.08152L8.58927 10.7921C8.2638 11.1175 7.7362 11.1175 7.41073 10.7921L4.70017 8.08152C4.43982 7.82118 4.43982 7.39905 4.70017 7.13872C4.96052 6.87832 5.38263 6.87832 5.64298 7.13872L7.33333 8.82905V2.00065C7.33333 1.63246 7.6318 1.33398 8 1.33398Z" />
</svg>
