<svg width="19" height="18" viewBox="0 0 19 18" xmlns="http://www.w3.org/2000/svg">
<path d="M15.5 11.25C15.9142 11.25 16.25 11.5858 16.25 12V15C16.25 15.8285 15.5785 16.5 14.75 16.5H4.25C3.42157 16.5 2.75 15.8285 2.75 15V12C2.75 11.5858 3.08579 11.25 3.5 11.25C3.91421 11.25 4.25 11.5858 4.25 12V15H14.75V12C14.75 11.5858 15.0858 11.25 15.5 11.25ZM9.5 1.5C9.91423 1.5 10.25 1.83579 10.25 2.25V9.93195L12.1516 8.03032C12.4446 7.73737 12.9194 7.73737 13.2123 8.03032C13.5052 8.3232 13.5052 8.7981 13.2123 9.09097L10.1629 12.1403C9.79677 12.5065 9.20323 12.5065 8.83708 12.1403L5.78769 9.09097C5.4948 8.7981 5.4948 8.3232 5.78769 8.03032C6.08059 7.73737 6.55545 7.73737 6.84835 8.03032L8.75 9.93195V2.25C8.75 1.83579 9.08577 1.5 9.5 1.5Z"/>
</svg>
