<svg width="18" height="18" viewBox="0 0 18 18" xmlns="http://www.w3.org/2000/svg">
<path fill-rule="evenodd" clip-rule="evenodd" d="M12.5433 2.27235C11.9575 1.68656 11.0077 1.68656 10.4219 2.27235L2.68665 10.0076C2.40535 10.2889 2.24731 10.6705 2.24731 11.0683V14.9928C2.24731 15.4111 2.58649 15.7503 3.00481 15.7503H6.92929C7.32712 15.7503 7.70863 15.5923 7.98996 15.3109L15.7252 7.57567C16.311 6.98986 16.311 6.04012 15.7252 5.45433L12.5433 2.27235ZM11.4826 3.33301L14.6646 6.51499L13.3702 7.80937L10.1882 4.62736L11.4826 3.33301ZM9.12756 5.68802L3.74731 11.0683V14.2503H6.92929L12.3096 8.87002L9.12756 5.68802Z" />
</svg>
