<svg width="15" height="15" viewBox="0 0 15 15" xmlns="http://www.w3.org/2000/svg">
<path fill-rule="evenodd" clip-rule="evenodd" d="M10.5433 1.2725C9.95746 0.686714 9.00773 0.686714 8.42191 1.2725L0.686649 9.00778C0.405347 9.2891 0.247314 9.67063 0.247314 10.0684V13.993C0.247314 14.4113 0.586487 14.7505 1.00481 14.7505H4.92929C5.32712 14.7505 5.70863 14.5924 5.98996 14.3111L13.7252 6.57583C14.311 5.99002 14.311 5.04027 13.7252 4.45448L10.5433 1.2725ZM9.48256 2.33316L12.6646 5.51514L11.3702 6.80953L8.18821 3.62751L9.48256 2.33316ZM7.12756 4.68817L1.74731 10.0684V13.2505H4.92929L10.3096 7.87018L7.12756 4.68817Z"/>
</svg>
