<svg width="15" height="12" viewBox="0 0 15 12" xmlns="http://www.w3.org/2000/svg">
<path d="M13.3333 0.666504C14.0363 0.666504 14.6121 1.21042 14.663 1.90033L14.6667 1.99984V9.99984C14.6667 10.7028 14.1228 11.2786 13.4328 11.3295L13.3333 11.3332H2.66667C1.96376 11.3332 1.38789 10.7893 1.33699 10.0993L1.33333 9.99984V9.33317H2.66667V9.99984H13.3333V2.94275L8.70713 7.5689C8.34107 7.93503 7.76167 7.95791 7.36888 7.63755L7.29293 7.5689L2.66667 2.94264V3.33317H1.33333V1.99984C1.33333 1.29693 1.87725 0.72106 2.56716 0.670161L2.66667 0.666504H13.3333ZM4 6.6665C4.36819 6.6665 4.66667 6.96497 4.66667 7.33317C4.66667 7.70137 4.36819 7.99984 4 7.99984H0.666667C0.298477 7.99984 0 7.70137 0 7.33317C0 6.96497 0.298477 6.6665 0.666667 6.6665H4ZM12.3906 1.99984H3.60947L8.00007 6.39044L12.3906 1.99984ZM3.33333 4.6665C3.70152 4.6665 4 4.96497 4 5.33317C4 5.67507 3.74264 5.95684 3.41108 5.99535L3.33333 5.99984H1.33333C0.965147 5.99984 0.666667 5.70137 0.666667 5.33317C0.666667 4.99127 0.92403 4.7095 1.25559 4.67099L1.33333 4.6665H3.33333Z" />
</svg>
