<svg width="12" height="16" viewBox="0 0 12 16"  xmlns="http://www.w3.org/2000/svg">
<path fill-rule="evenodd" clip-rule="evenodd" d="M6 0.5V5.375C6 5.95977 6.44618 6.44034 7.01666 6.49485L7.125 6.5H12V14C12 14.7908 11.3881 15.4386 10.6119 15.4959L10.5 15.5H1.5C0.709228 15.5 0.061376 14.8881 0.00411415 14.1119L0 14V2C0 1.20923 0.611908 0.561376 1.38805 0.504114L1.5 0.5H6ZM5.20447 8.39382C4.9116 8.10095 4.4367 8.10095 4.1438 8.39382C3.87344 8.66424 3.85265 9.08963 4.08141 9.38382L4.1438 9.45447L4.93935 10.2501L4.14388 11.0455C3.85099 11.3384 3.85099 11.8133 4.14388 12.1062C4.41425 12.3765 4.83969 12.3973 5.1339 12.1686L5.20455 12.1062L6 11.3107L6.79545 12.1062C7.08833 12.399 7.56323 12.399 7.8561 12.1062C8.12645 11.8358 8.14724 11.4104 7.91849 11.1162L7.8561 11.0455L7.06065 10.2501L7.85618 9.45447C8.14913 9.1616 8.14913 8.68678 7.85618 8.39382C7.58583 8.12348 7.16038 8.10268 6.86618 8.33144L6.79553 8.39382L6 9.18935L5.20447 8.39382ZM7.5 0.53252C7.74165 0.583685 7.96804 0.694013 8.1581 0.85479L8.25 0.939342L11.5606 4.25C11.738 4.42735 11.8664 4.64454 11.937 4.88053L11.9675 5H7.5V0.53252Z" />
</svg>
