<svg width="24" height="24" viewBox="0 0 24 24" fill="none" xmlns="http://www.w3.org/2000/svg">
<path d="M11.5 3C12.0523 3 12.5 3.44772 12.5 4C12.5 4.51284 12.114 4.93551 11.6166 4.99327L11.5 5H6V19H16V12.5C16 11.9477 16.4477 11.5 17 11.5C17.5128 11.5 17.9355 11.886 17.9933 12.3834L18 12.5V19H20C20.5523 19 21 19.4477 21 20C21 20.5128 20.614 20.9355 20.1166 20.9933L20 21H4C3.44772 21 3 20.5523 3 20C3 19.4872 3.38604 19.0645 3.88338 19.0067L4 19V5C4 3.94564 4.81588 3.08183 5.85074 3.00549L6 3H11.5ZM13.5 11C14.3284 11 15 11.6716 15 12.5C15 13.3284 14.3284 14 13.5 14C12.6716 14 12 13.3284 12 12.5C12 11.6716 12.6716 11 13.5 11ZM18.5871 4.17156L20.7071 6.29149C21.0974 6.68184 21.0976 7.31465 20.7075 7.70525L18.5876 9.82799C18.1973 10.2188 17.5641 10.2192 17.1733 9.82891C16.7826 9.43864 16.7822 8.80548 17.1724 8.4147L17.5883 7.99827H14.38C13.8277 7.99827 13.38 7.55056 13.38 6.99827C13.38 6.44599 13.8277 5.99827 14.38 5.99827H17.5854L17.1729 5.58577C16.7824 5.19524 16.7824 4.56208 17.1729 4.17156C17.5634 3.78103 18.1966 3.78103 18.5871 4.17156Z" fill="#09244B"/>
</svg>
