<svg width="19" height="18" viewBox="0 0 19 18"  xmlns="http://www.w3.org/2000/svg">
<path d="M8.75 4.5C9.16423 4.5 9.5 4.83579 9.5 5.25C9.5 5.66421 9.16423 6 8.75 6H4.25V14.25H12.5V9.75C12.5 9.33577 12.8358 9 13.25 9C13.6642 9 14 9.33577 14 9.75V14.25C14 15.0785 13.3285 15.75 12.5 15.75H4.25C3.42157 15.75 2.75 15.0785 2.75 14.25V6C2.75 5.17157 3.42157 4.5 4.25 4.5H8.75ZM15.5 2.25C15.9142 2.25 16.25 2.58579 16.25 3V6.75C16.25 7.16421 15.9142 7.5 15.5 7.5C15.0858 7.5 14.75 7.16421 14.75 6.75V4.81066L8.53032 11.0303C8.23745 11.3232 7.76256 11.3232 7.46967 11.0303C7.17678 10.7374 7.17678 10.2626 7.46967 9.96968L13.6894 3.75H11.75C11.3358 3.75 11 3.41422 11 3C11 2.58579 11.3358 2.25 11.75 2.25H15.5Z" />
</svg>
