<svg width="24" height="24" viewBox="0 0 24 24"  xmlns="http://www.w3.org/2000/svg">
<path fill-rule="evenodd" clip-rule="evenodd" d="M4.00052 12.0012L4.00032 12L4.00052 11.9988C4.00297 11.9832 4.01691 11.895 4.09488 11.7217C4.18067 11.5309 4.31982 11.2905 4.51892 11.0138C4.91667 10.4611 5.5116 9.82208 6.26352 9.21614C7.77713 7.99636 9.81228 7 12 7C14.1877 7 16.2229 7.99636 17.7365 9.21614C18.4884 9.82208 19.0833 10.4611 19.4811 11.0138C19.6802 11.2905 19.8193 11.5309 19.9051 11.7217C19.9831 11.895 19.997 11.9832 19.9995 11.9988L19.9997 12L19.9995 12.0012C19.997 12.0168 19.9831 12.105 19.9051 12.2783C19.8193 12.4691 19.6802 12.7095 19.4811 12.9862C19.0833 13.5389 18.4884 14.1779 17.7365 14.7839C16.2229 16.0036 14.1877 17 12 17C9.81228 17 7.77713 16.0036 6.26352 14.7839C5.5116 14.1779 4.91667 13.5389 4.51892 12.9862C4.31982 12.7095 4.18067 12.4691 4.09488 12.2783C4.01691 12.105 4.00297 12.0168 4.00052 12.0012ZM12 5C9.21715 5 6.7523 6.25364 5.00856 7.65886C4.13179 8.36542 3.40871 9.1326 2.89561 9.84555C2.63928 10.2017 2.4248 10.559 2.27082 10.9014C2.12348 11.229 2 11.6119 2 12C2 12.3881 2.12348 12.771 2.27082 13.0986C2.4248 13.441 2.63928 13.7983 2.89561 14.1544C3.40871 14.8674 4.13179 15.6346 5.00856 16.3411C6.7523 17.7464 9.21715 19 12 19C14.7828 19 17.2477 17.7464 18.9914 16.3411C19.8682 15.6346 20.5913 14.8674 21.1044 14.1544C21.3607 13.7983 21.5752 13.441 21.7292 13.0986C21.8765 12.771 22 12.3881 22 12C22 11.6119 21.8765 11.229 21.7292 10.9014C21.5752 10.559 21.3607 10.2017 21.1044 9.84555C20.5913 9.1326 19.8682 8.36542 18.9914 7.65886C17.2477 6.25364 14.7828 5 12 5ZM11 12C11 11.4477 11.4477 11 12 11C12.5523 11 13 11.4477 13 12C13 12.5523 12.5523 13 12 13C11.4477 13 11 12.5523 11 12ZM12 9C10.3431 9 9 10.3431 9 12C9 13.6569 10.3431 15 12 15C13.6569 15 15 13.6569 15 12C15 10.3431 13.6569 9 12 9Z" />
</svg>
