<svg width="24" height="24" viewBox="0 0 24 24" fill="none" xmlns="http://www.w3.org/2000/svg">
<path d="M13.5858 2C14.0573 2 14.5116 2.16649 14.8702 2.46691L15 2.58579L19.4142 7C19.7476 7.3334 19.9511 7.77238 19.9923 8.23836L20 8.41421V20C20 21.0544 19.1841 21.9182 18.1493 21.9945L18 22H6C4.94564 22 4.08183 21.1841 4.00549 20.1493L4 20V4C4 2.94564 4.81588 2.08183 5.85074 2.00549L6 2H13.5858ZM12 4H6V20H18V10H13.5C12.6716 10 12 9.32843 12 8.5V4ZM12 11.5C12.5523 11.5 13 11.9477 13 12.5V14H14.5C15.0523 14 15.5 14.4477 15.5 15C15.5 15.5523 15.0523 16 14.5 16H13V17.5C13 18.0523 12.5523 18.5 12 18.5C11.4477 18.5 11 18.0523 11 17.5V16H9.5C8.94772 16 8.5 15.5523 8.5 15C8.5 14.4477 8.94772 14 9.5 14H11V12.5C11 11.9477 11.4477 11.5 12 11.5ZM14 4.41421V8H17.5858L14 4.41421Z" fill="#09244B"/>
</svg>
