<svg width="12" height="12" viewBox="0 0 12 12"  xmlns="http://www.w3.org/2000/svg">
<path fill-rule="evenodd" clip-rule="evenodd" d="M10 0.666667C10 0.29848 9.70153 0 9.33333 0C8.96513 0 8.66667 0.29848 8.66667 0.666667V1.33333H0.666667C0.29848 1.33333 0 1.63181 0 2C0 2.36819 0.29848 2.66667 0.666667 2.66667H8.66667V3.33333C8.66667 3.70152 8.96513 4 9.33333 4C9.70153 4 10 3.70152 10 3.33333V2.66667H11.3333C11.7015 2.66667 12 2.36819 12 2C12 1.63181 11.7015 1.33333 11.3333 1.33333H10V0.666667ZM0.666667 5.33333C0.29848 5.33333 0 5.6318 0 6C0 6.3682 0.29848 6.66667 0.666667 6.66667H2V7.33333C2 7.70153 2.29848 8 2.66667 8C3.03485 8 3.33333 7.70153 3.33333 7.33333V6.66667H11.3333C11.7015 6.66667 12 6.3682 12 6C12 5.6318 11.7015 5.33333 11.3333 5.33333H3.33333V4.66667C3.33333 4.29848 3.03485 4 2.66667 4C2.29848 4 2 4.29848 2 4.66667V5.33333H0.666667ZM0 10C0 9.6318 0.29848 9.33333 0.666667 9.33333H8.66667V8.66667C8.66667 8.29847 8.96513 8 9.33333 8C9.70153 8 10 8.29847 10 8.66667V9.33333H11.3333C11.7015 9.33333 12 9.6318 12 10C12 10.3682 11.7015 10.6667 11.3333 10.6667H10V11.3333C10 11.7015 9.70153 12 9.33333 12C8.96513 12 8.66667 11.7015 8.66667 11.3333V10.6667H0.666667C0.29848 10.6667 0 10.3682 0 10Z" />
</svg>
