<svg width="18" height="18" viewBox="0 0 18 18" xmlns="http://www.w3.org/2000/svg">
<g id="mail_send_line">
<path id="Vector" d="M15 3C15.7908 3 16.4386 3.61191 16.4959 4.38805L16.5 4.5V13.5C16.5 14.2908 15.8881 14.9386 15.1119 14.9959L15 15H3C2.20923 15 1.56138 14.3881 1.50411 13.6119L1.5 13.5V12.75H3V13.5H15V5.56078L9.79553 10.7652C9.38371 11.1771 8.73188 11.2028 8.28999 10.8424L8.20455 10.7652L3 5.56066V6H1.5V4.5C1.5 3.70923 2.11191 3.06138 2.88805 3.00411L3 3H15ZM4.5 9.75C4.91421 9.75 5.25 10.0858 5.25 10.5C5.25 10.9142 4.91421 11.25 4.5 11.25H0.75C0.335786 11.25 0 10.9142 0 10.5C0 10.0858 0.335786 9.75 0.75 9.75H4.5ZM13.9394 4.5H4.06066L9.00008 9.43943L13.9394 4.5ZM3.75 7.5C4.16421 7.5 4.5 7.83577 4.5 8.25C4.5 8.63464 4.21047 8.95163 3.83747 8.99495L3.75 9H1.5C1.08579 9 0.75 8.66423 0.75 8.25C0.75 7.86536 1.03953 7.54837 1.41253 7.50505L1.5 7.5H3.75Z" />
</g>
</svg>
