<svg width="12" height="16" viewBox="0 0 12 16"  xmlns="http://www.w3.org/2000/svg">
<path d="M7.18935 0.5C7.54295 0.5 7.88369 0.624865 8.15263 0.850186L8.25 0.939342L11.5606 4.25C11.8107 4.50005 11.9634 4.82929 11.9942 5.17877L12 5.31066V14C12 14.7908 11.3881 15.4386 10.6119 15.4959L10.5 15.5H1.5C0.709228 15.5 0.061376 14.8881 0.00411415 14.1119L0 14V2C0 1.20923 0.611908 0.561376 1.38805 0.504114L1.5 0.5H7.18935ZM6 2H1.5V14H10.5V6.5H7.125C6.5037 6.5 6 5.99632 6 5.375V2ZM6 7.625C6.41423 7.625 6.75 7.96077 6.75 8.375V9.5H7.875C8.28922 9.5 8.625 9.83578 8.625 10.25C8.625 10.6642 8.28922 11 7.875 11H6.75V12.125C6.75 12.5392 6.41423 12.875 6 12.875C5.58577 12.875 5.25 12.5392 5.25 12.125V11H4.125C3.71079 11 3.375 10.6642 3.375 10.25C3.375 9.83578 3.71079 9.5 4.125 9.5H5.25V8.375C5.25 7.96077 5.58577 7.625 6 7.625ZM7.5 2.31066V5H10.1894L7.5 2.31066Z" />
</svg>
