<svg width="18" height="18" viewBox="0 0 18 18"  xmlns="http://www.w3.org/2000/svg">
<path d="M9 12.375C9.6213 12.375 10.125 12.8787 10.125 13.5C10.125 14.1213 9.6213 14.625 9 14.625C8.3787 14.625 7.875 14.1213 7.875 13.5C7.875 12.8787 8.3787 12.375 9 12.375ZM9 7.875C9.6213 7.875 10.125 8.3787 10.125 9C10.125 9.6213 9.6213 10.125 9 10.125C8.3787 10.125 7.875 9.6213 7.875 9C7.875 8.3787 8.3787 7.875 9 7.875ZM9 3.375C9.6213 3.375 10.125 3.87868 10.125 4.5C10.125 5.12132 9.6213 5.625 9 5.625C8.3787 5.625 7.875 5.12132 7.875 4.5C7.875 3.87868 8.3787 3.375 9 3.375Z" />
</svg>
