<svg width="24" height="24" viewBox="0 0 24 24" fill="none" xmlns="http://www.w3.org/2000/svg">
<path d="M2.00003 12.0809C1.99378 11.2176 2.91031 10.7236 3.61774 11.1052L3.71281 11.1627L6.39066 12.967C7.36336 13.6224 6.76835 15.1101 5.65702 14.9737L5.54026 14.9537L4.4769 14.7204C5.33757 17.0968 7.30723 19.0268 9.93152 19.73C13.7626 20.7565 17.6914 18.8202 19.281 15.3252C19.5097 14.8225 20.1026 14.6003 20.6053 14.8289C21.1081 15.0576 21.3302 15.6505 21.1016 16.1532C19.1138 20.5236 14.2049 22.9456 9.41388 21.6619C5.41005 20.589 2.63004 17.2334 2.09423 13.3742C2.03513 12.9485 2.00329 12.5166 2.00003 12.0809ZM2.90283 7.8519C4.89059 3.48157 9.79956 1.05954 14.5905 2.34327C18.5944 3.4161 21.3744 6.7717 21.9102 10.6309C21.9693 11.0566 22.0011 11.4885 22.0043 11.9242C22.0106 12.7875 21.0941 13.2815 20.3866 12.8999L20.2916 12.8424L17.6136 11.0381C16.6409 10.3827 17.2359 8.89503 18.3471 9.03136L18.4639 9.05135L19.5274 9.28457C18.6667 6.90822 16.6971 4.97828 14.0729 4.27513C10.2419 3.2486 6.313 5.18495 4.72337 8.67994C4.49472 9.18267 3.90181 9.40485 3.39909 9.17619C2.89636 8.94754 2.67418 8.35463 2.90283 7.8519Z" fill="#09244B"/>
</svg>
