<svg width="24" height="24" viewBox="0 0 24 24" fill="none" xmlns="http://www.w3.org/2000/svg">
<path d="M17.2929 3.46453C17.6534 3.10404 18.2206 3.07631 18.6129 3.38134L18.7071 3.46453L21.5355 6.29295C21.9261 6.68348 21.9261 7.31664 21.5355 7.70717C21.175 8.06765 20.6078 8.09538 20.2155 7.79036L20.1213 7.70717L19 6.58585V18.9999C19 19.5522 18.5523 19.9999 18 19.9999C17.4872 19.9999 17.0645 19.6139 17.0067 19.1165L17 18.9999V6.58585L15.8787 7.70717C15.4882 8.09769 14.855 8.09769 14.4645 7.70717C14.1039 7.34668 14.0762 6.77945 14.3813 6.38716L14.4645 6.29295L17.2929 3.46453ZM13 17.9999C13.5523 17.9999 14 18.4476 14 18.9999C14 19.5127 13.614 19.9354 13.1166 19.9932L13 19.9999H4C3.44772 19.9999 3 19.5522 3 18.9999C3 18.487 3.38604 18.0644 3.88338 18.0066L4 17.9999H13ZM13 10.9999C13.5523 10.9999 14 11.4476 14 11.9999C14 12.5522 13.5523 12.9999 13 12.9999H4C3.44772 12.9999 3 12.5522 3 11.9999C3 11.4476 3.44772 10.9999 4 10.9999H13ZM11 3.99988C11.5523 3.99988 12 4.4476 12 4.99988C12 5.55217 11.5523 5.99988 11 5.99988H4C3.44772 5.99988 3 5.55217 3 4.99988C3 4.4476 3.44772 3.99988 4 3.99988H11Z" fill="#09244B"/>
</svg>
