<svg width="24" height="24" viewBox="0 0 24 24" fill="none" xmlns="http://www.w3.org/2000/svg">
<path d="M18 4C18.5523 4 19 4.44772 19 5V17.414L20.1213 16.2927C20.5118 15.9022 21.145 15.9022 21.5355 16.2927C21.9261 16.6832 21.9261 17.3164 21.5355 17.7069L18.7071 20.5354C18.3166 20.9259 17.6834 20.9259 17.2929 20.5354L14.4645 17.7069C14.0739 17.3164 14.0739 16.6832 14.4645 16.2927C14.855 15.9022 15.4882 15.9022 15.8787 16.2927L17 17.414V5C17 4.44772 17.4477 4 18 4ZM11 18C11.5523 18 12 18.4477 12 19C12 19.5128 11.614 19.9355 11.1166 19.9933L11 20H4C3.44772 20 3 19.5523 3 19C3 18.4872 3.38604 18.0645 3.88338 18.0067L4 18H11ZM13 11C13.5523 11 14 11.4477 14 12C14 12.5128 13.614 12.9355 13.1166 12.9933L13 13H4C3.44772 13 3 12.5523 3 12C3 11.4872 3.38604 11.0645 3.88338 11.0067L4 11H13ZM13 4C13.5523 4 14 4.44772 14 5C14 5.55228 13.5523 6 13 6H4C3.44772 6 3 5.55228 3 5C3 4.44772 3.44772 4 4 4H13Z" fill="#09244B"/>
</svg>
