<svg width="12" height="14" viewBox="0 0 12 14"  xmlns="http://www.w3.org/2000/svg">
<path d="M11.3333 9.00004C11.7015 9.00004 12 9.29851 12 9.66671V12.3334C12 13.0698 11.4031 13.6667 10.6667 13.6667H1.33333C0.596953 13.6667 0 13.0698 0 12.3334V9.66671C0 9.29851 0.29848 9.00004 0.666667 9.00004C1.03485 9.00004 1.33333 9.29851 1.33333 9.66671V12.3334H10.6667V9.66671C10.6667 9.29851 10.9651 9.00004 11.3333 9.00004ZM6 0.333374C6.3682 0.333374 6.66667 0.631854 6.66667 1.00004V7.82844L8.357 6.13811C8.6174 5.87771 9.03947 5.87771 9.2998 6.13811C9.5602 6.39844 9.5602 6.82057 9.2998 7.08091L6.58927 9.79144C6.2638 10.1169 5.7362 10.1169 5.41073 9.79144L2.70017 7.08091C2.43982 6.82057 2.43982 6.39844 2.70017 6.13811C2.96052 5.87771 3.38263 5.87771 3.64298 6.13811L5.33333 7.82844V1.00004C5.33333 0.631854 5.6318 0.333374 6 0.333374Z" />
</svg>
