<svg width="15" height="12" viewBox="0 0 15 12" xmlns="http://www.w3.org/2000/svg">
<path d="M13.3333 0.666626C14.0363 0.666626 14.6121 1.21054 14.663 1.90045L14.6667 1.99996V9.99996C14.6667 10.7029 14.1228 11.2787 13.4328 11.3296L13.3333 11.3333H2.66667C1.96376 11.3333 1.38789 10.7894 1.33699 10.0995L1.33333 9.99996V9.33329H2.66667V9.99996H13.3333V2.94287L8.70713 7.56903C8.34107 7.93515 7.76167 7.95803 7.36888 7.63767L7.29293 7.56903L2.66667 2.94277V3.33329H1.33333V1.99996C1.33333 1.29705 1.87725 0.721182 2.56716 0.670283L2.66667 0.666626H13.3333ZM4 6.66663C4.36819 6.66663 4.66667 6.96509 4.66667 7.33329C4.66667 7.70149 4.36819 7.99996 4 7.99996H0.666667C0.298477 7.99996 0 7.70149 0 7.33329C0 6.96509 0.298477 6.66663 0.666667 6.66663H4ZM12.3906 1.99996H3.60947L8.00007 6.39056L12.3906 1.99996ZM3.33333 4.66663C3.70152 4.66663 4 4.96509 4 5.33329C4 5.67519 3.74264 5.95697 3.41108 5.99547L3.33333 5.99996H1.33333C0.965147 5.99996 0.666667 5.70149 0.666667 5.33329C0.666667 4.99139 0.92403 4.70962 1.25559 4.67111L1.33333 4.66663H3.33333Z" />
</svg>
