<svg width="14" height="14" viewBox="0 0 14 14" fill="none" xmlns="http://www.w3.org/2000/svg">
<path d="M4.74982 10.75H3.24982V9.25H4.74982V10.75ZM7.74985 9.25H6.24985V10.75H7.74985V9.25ZM4.74982 6.25H3.24982V7.75H4.74982V6.25ZM7.74985 6.25H6.24985V7.75H7.74985V6.25ZM10.7498 6.25H9.24985V7.75H10.7498V6.25ZM13.7498 3.25V12.25C13.7498 13.0375 13.1348 13.69 12.3623 13.7425H12.2498H1.74982C0.962324 13.7425 0.309824 13.1275 0.257324 12.355V12.2425V3.2425C0.257324 2.455 0.872324 1.8025 1.64482 1.75H1.75732H3.25732V1C3.25732 0.5875 3.59482 0.25 4.00732 0.25C4.41982 0.25 4.75732 0.5875 4.75732 1V1.75H9.25735V1C9.25735 0.5875 9.59485 0.25 10.0073 0.25C10.4198 0.25 10.7573 0.5875 10.7573 1V1.75H12.2573C13.0448 1.75 13.6973 2.365 13.7498 3.1375V3.25ZM12.2573 3.25H10.7573C10.7573 3.6625 10.4198 4 10.0073 4C9.59485 4 9.25735 3.6625 9.25735 3.25H4.75732C4.75732 3.6625 4.41982 4 4.00732 4C3.59482 4 3.25732 3.6625 3.25732 3.25H1.75732V12.25H12.2573V3.25Z" fill="#848484"/>
</svg>
