<svg width="18" height="18" viewBox="0 0 18 18"  xmlns="http://www.w3.org/2000/svg">
<path d="M6.15854 8.81729C6.45143 9.11024 6.45143 9.58507 6.15854 9.87802L4.78722 11.2493H12.0032C12.4174 11.2493 12.7532 11.5851 12.7532 11.9993C12.7532 12.4135 12.4174 12.7493 12.0032 12.7493H4.78722L6.15854 14.1206C6.45143 14.4135 6.45143 14.8884 6.15854 15.1813C5.86565 15.4742 5.39077 15.4742 5.09788 15.1813L2.44623 12.5296C2.15334 12.2368 2.15334 11.7619 2.44623 11.469L5.09788 8.81729C5.39077 8.52442 5.86565 8.52442 6.15854 8.81729ZM11.8478 2.81733C12.1182 2.54696 12.5436 2.52616 12.8378 2.75494L12.9084 2.81733L15.5601 5.46898C15.8305 5.73934 15.8513 6.16476 15.6225 6.45899L15.5601 6.52964L12.9084 9.18127C12.6156 9.47422 12.1407 9.47422 11.8478 9.18127C11.5774 8.91092 11.5566 8.48548 11.7854 8.19127L11.8478 8.12062L13.2192 6.74931H6.00311C5.5889 6.74931 5.25311 6.41352 5.25311 5.99931C5.25311 5.61468 5.54265 5.29768 5.91565 5.25435L6.00311 5.24931H13.2192L11.8478 3.87799C11.5549 3.5851 11.5549 3.11022 11.8478 2.81733Z" />
</svg>
