<svg width="16" height="16" viewBox="0 0 16 16" xmlns="http://www.w3.org/2000/svg">
<path d="M13.3333 10.0001C13.7015 10.0001 14 10.2985 14 10.6667V13.3334C14 14.0698 13.4031 14.6667 12.6667 14.6667H3.33333C2.59695 14.6667 2 14.0698 2 13.3334V10.6667C2 10.2985 2.29848 10.0001 2.66667 10.0001C3.03485 10.0001 3.33333 10.2985 3.33333 10.6667V13.3334H12.6667V10.6667C12.6667 10.2985 12.9651 10.0001 13.3333 10.0001ZM8.58927 2.31634L11.2998 5.02692C11.5602 5.28727 11.5602 5.70938 11.2998 5.96973C11.0395 6.23007 10.6174 6.23007 10.357 5.96973L8.66667 4.27937V10.6667C8.66667 11.0349 8.3682 11.3334 8 11.3334C7.6318 11.3334 7.33333 11.0349 7.33333 10.6667V4.27937L5.64298 5.96973C5.38263 6.23007 4.96052 6.23007 4.70017 5.96973C4.43982 5.70938 4.43982 5.28727 4.70017 5.02692L7.41073 2.31634C7.7362 1.99091 8.2638 1.99091 8.58927 2.31634Z" />
</svg>
