<svg width="18" height="18" viewBox="0 0 18 18" xmlns="http://www.w3.org/2000/svg">
<path d="M9 1.5C13.1421 1.5 16.5 4.85786 16.5 9C16.5 13.1421 13.1421 16.5 9 16.5C4.85786 16.5 1.5 13.1421 1.5 9C1.5 4.85786 4.85786 1.5 9 1.5ZM9 3C5.68629 3 3 5.68629 3 9C3 12.3137 5.68629 15 9 15C12.3137 15 15 12.3137 15 9C15 5.68629 12.3137 3 9 3ZM9 11.25C9.41423 11.25 9.75 11.5858 9.75 12C9.75 12.4142 9.41423 12.75 9 12.75C8.58577 12.75 8.25 12.4142 8.25 12C8.25 11.5858 8.58577 11.25 9 11.25ZM9 4.5C9.41423 4.5 9.75 4.83579 9.75 5.25V9.75C9.75 10.1642 9.41423 10.5 9 10.5C8.58577 10.5 8.25 10.1642 8.25 9.75V5.25C8.25 4.83579 8.58577 4.5 9 4.5Z" />
</svg>
