<svg width="24" height="24" viewBox="0 0 24 24" fill="none" xmlns="http://www.w3.org/2000/svg">
<path fill-rule="evenodd" clip-rule="evenodd" d="M12 2V8.5C12 9.2797 12.5949 9.92045 13.3555 9.99313L13.5 10H20V20C20 21.0544 19.1841 21.9182 18.1493 21.9945L18 22H6C4.94564 22 4.08183 21.1841 4.00549 20.1493L4 20V4C4 2.94564 4.81588 2.08183 5.85074 2.00549L6 2H12ZM10.9393 12.5251C10.5488 12.1346 9.9156 12.1346 9.52507 12.5251C9.16459 12.8857 9.13686 13.4528 9.44188 13.8451L9.52507 13.9393L10.5858 15.0001L9.52518 16.0607C9.13466 16.4512 9.13466 17.0844 9.52518 17.4749C9.88567 17.8354 10.4529 17.8631 10.8452 17.5581L10.9394 17.4749L12 16.4143L13.0606 17.4749C13.4511 17.8654 14.0843 17.8654 14.4748 17.4749C14.8353 17.1144 14.863 16.5472 14.558 16.1549L14.4748 16.0607L13.4142 15.0001L14.4749 13.9393C14.8655 13.5488 14.8655 12.9157 14.4749 12.5251C14.1144 12.1646 13.5472 12.1369 13.1549 12.4419L13.0607 12.5251L12 13.5858L10.9393 12.5251ZM14 2.04336C14.3222 2.11158 14.624 2.25868 14.8775 2.47305L15 2.58579L19.4142 7C19.6507 7.23647 19.8219 7.52606 19.916 7.84071L19.9566 8H14V2.04336Z" fill="#09244B"/>
</svg>
