<svg width="14" height="12" viewBox="0 0 14 12"  xmlns="http://www.w3.org/2000/svg">
<path fill-rule="evenodd" clip-rule="evenodd" d="M0.307113 1.21299C0.423198 0.93273 0.696678 0.75 1.00002 0.75H8.5C11.3995 0.75 13.75 3.10051 13.75 6C13.75 8.8995 11.3995 11.25 8.5 11.25H1.75002C1.33581 11.25 1.00002 10.9142 1.00002 10.5C1.00002 10.0858 1.33581 9.75 1.75002 9.75H8.5C10.5711 9.75 12.25 8.07105 12.25 6C12.25 3.92894 10.5711 2.25 8.5 2.25H2.81068L4.15536 3.59467C4.44825 3.88756 4.44825 4.36243 4.15536 4.65532C3.86246 4.9482 3.38759 4.9482 3.09469 4.65532L0.46969 2.03033C0.25519 1.81583 0.191028 1.49324 0.307113 1.21299Z" />
</svg>
